<svg width="87" height="88" viewBox="0 0 87 88" fill="none" xmlns="http://www.w3.org/2000/svg">
<g clip-path="url(#clip0_13_52)" filter="url(#filter0_d_13_52)">
<path d="M43.5006 0.5C35.6881 0.5 28.0511 2.81665 21.5553 7.15703C15.0594 11.4974 9.99653 17.6666 7.00682 24.8844C4.01711 32.1021 3.23487 40.0444 4.75901 47.7068C6.28315 55.3691 10.0452 62.4074 15.5695 67.9317C21.0937 73.4559 28.132 77.218 35.7944 78.7422C43.4568 80.2663 51.399 79.484 58.6168 76.4943C65.8346 73.5046 72.0037 68.4418 76.3441 61.9459C80.6845 55.4501 83.0012 47.8131 83.0012 40.0006C82.9894 29.528 78.8241 19.4877 71.4188 12.0824C64.0135 4.67714 53.9732 0.511733 43.5006 0.5ZM40.2274 49.3036C41.4336 49.5509 41.3215 51.2866 40.5598 52.0834C39.8914 51.1781 40.3603 50.2193 40.2285 49.3036H40.2274ZM42.5989 52.6223C42.8531 53.0384 43.0073 53.5079 43.0492 53.9937C43.0911 54.4795 43.0196 54.9684 42.8404 55.4219C41.7532 55.7532 41.6715 53.3583 42.6001 52.6234L42.5989 52.6223ZM43.356 49.0947C43.1565 48.0752 46.2944 47.0347 46.0763 48.1545C45.388 51.0661 44.3242 53.2405 43.3571 49.0936L43.356 49.0947ZM68.632 66.3744C61.6982 65.531 51.8926 64.6666 45.2422 64.5569C44.9244 63.0218 45.0684 61.427 45.6563 59.9737C45.7341 59.3418 45.8628 58.7172 46.0413 58.1061C46.2255 57.2971 46.4849 56.507 46.8159 55.7462C46.8713 55.5406 46.9495 55.3418 47.0491 55.1536C47.101 55.0595 47.1587 54.9688 47.2218 54.8818C47.9298 53.762 50.2547 51.6926 51.3046 51.8489C53.171 51.2143 55.1238 50.7337 56.4478 50.1259C57.3238 49.9066 57.1605 49.7853 57.2713 50.6905C59.1156 51.2003 59.9544 48.8008 61.4487 50.1073C63.3746 53.2417 63.5274 50.6497 66.0249 51.3298C67.399 49.6104 69.4078 52.4963 69.8312 50.5739C70.25 49.5497 70.7726 48.7203 70.1812 47.6168C65.6562 45.2441 72.5936 47.2831 69.1652 44.2945C69.2025 42.9064 74.0249 44.1849 70.9511 41.8519C70.8952 41.7932 70.8553 41.7211 70.8353 41.6426C70.8152 41.5641 70.8156 41.4818 70.8364 41.4035C70.8572 41.3252 70.8978 41.2536 70.9542 41.1954C71.0107 41.1373 71.0811 41.0946 71.1587 41.0714C71.8516 40.9735 71.2252 40.3284 71.6148 40.0321C72.9376 39.3322 71.4888 39.2867 71.6848 38.4211C73.0916 37.1683 68.141 36.711 71.2882 35.52C71.4935 35.275 71.1645 34.8842 70.8986 34.8691C67.07 34.7932 73.4066 33.4121 70.9522 32.1242C67.896 31.8431 70.6921 28.5815 68.4442 28.4894C67.161 28.6924 67.7677 27.6821 66.222 28.3879C64.3789 26.9484 66.8776 26.4725 64.7884 24.5524C64.6927 21.1858 63.1051 25.2523 61.3612 22.6545C59.4457 21.7539 61.7682 21.4623 60.4582 20.9513C57.2935 21.4261 60.0289 20.0123 58.1252 19.5795C57.3751 19.6647 57.2294 19.1024 57.0591 18.5868C55.9859 17.2663 54.6093 19.5959 53.0823 16.8942C52.1329 16.5458 51.1076 16.4572 50.1124 16.6376C49.8083 16.3953 49.4566 16.2195 49.0803 16.1216C48.7039 16.0238 48.3112 16.006 47.9276 16.0695C47.6464 16.9292 46.5125 16.0508 46.2291 15.5784C45.2503 14.0246 44.645 17.0179 43.8797 15.1771C39.8669 19.3661 37.6494 11.9109 36.1259 18.0374C35.2545 19.2926 33.6762 16.3343 32.6753 17.3923C32.1283 18.4422 29.2364 16.0042 30.8381 19.4442C27.6406 21.2721 33.6972 22.7373 29.7625 22.9601C28.4654 23.5597 28.6823 21.8752 28.0746 21.8741C27.1285 22.3978 23.9685 22.0817 25.4418 24.1185C25.5584 24.2281 25.8932 25.0832 25.3472 24.893C23.419 24.6119 24.6007 24.8639 24.2974 26.007C24.2344 26.9088 23.4436 25.3899 23.1997 25.6384C23.1123 27.4862 21.5829 24.8685 21.5666 26.4002C21.997 28.4019 22.7623 29.8927 20.2835 29.3876C19.615 30.0059 19.3584 30.2042 20.3453 30.7058C13.8233 29.79 22.3563 34.3931 17.8629 33.9615C14.746 35.6553 20.4187 36.5698 20.042 37.8355C19.7002 37.9673 19.4494 37.1228 19.0819 37.8297C18.529 37.9102 16.9507 36.2946 16.8842 37.8985C17.4255 39.4477 14.5593 38.4141 14.4217 39.8699C14.7203 40.7332 16.2998 40.9198 16.1376 42.2671C16.6171 43.6086 19.4844 42.2368 17.3636 44.1592C17.1455 45.7923 19.1379 43.4208 18.6818 45.7853C19.4738 44.7868 20.5785 45.748 19.335 46.0805C16.8305 45.9638 16.0793 48.6818 18.3575 49.58C19.0726 49.3094 18.8649 50.1295 18.9792 50.5459C19.2907 53.1799 22.1545 49.3934 22.5184 50.869C21.8185 51.3356 22.5978 52.7354 22.999 52.2175C23.1064 51.8477 23.3397 51.086 23.8506 51.1676C24.2706 52.0775 23.9953 53.1904 25.5164 53.0901C26.2163 53.1671 25.8442 51.0918 26.2245 50.5995C28.9868 47.8232 32.3709 50.5996 30.3703 50.5611C30.3563 51.7148 34.2303 50.1341 34.803 51.9667C36.2029 54.7243 40.519 55.3578 39.7713 59.1198C39.9689 60.9378 39.8624 62.7762 39.4563 64.5593C33.6797 64.6281 24.6007 65.3606 18.025 66.0501C12.8275 60.9704 9.26658 54.4534 7.79933 47.3355C6.33208 40.2176 7.02542 32.8236 9.79043 26.1026C12.5554 19.3816 17.2659 13.6403 23.3172 9.61551C29.3685 5.59074 36.4846 3.46622 43.752 3.51462C51.0194 3.56302 58.1065 5.78212 64.1037 9.88713C70.1008 13.9921 74.7344 19.7958 77.4097 26.553C80.0849 33.3102 80.6797 40.7128 79.1178 47.8105C77.5559 54.9082 73.9084 61.3772 68.6437 66.3872L68.632 66.3744ZM48.8328 48.6969C48.54 48.9501 47.8261 50.5984 47.6208 49.8903C47.4528 48.6795 49.2679 46.7909 48.8339 48.6958L48.8328 48.6969ZM52.5726 50.1761C52.1142 50.0373 50.0856 50.7442 47.9462 51.8699C50.0063 49.72 51.5367 49.419 52.5738 50.1738L52.5726 50.1761ZM36.771 47.9725C37.766 47.8769 38.6013 49.839 38.2431 50.2507C37.6016 50.0571 36.2892 48.7891 36.7721 47.9702L36.771 47.9725ZM36.4408 51.5887C35.7619 50.6229 34.5231 49.489 34.3714 48.368C36.6648 49.9265 39.9789 54.8597 36.4408 51.5829V51.5887ZM33.2528 50.0338C32.8066 50.1742 32.3247 50.1485 31.8959 49.9616C31.4672 49.7747 31.1205 49.4391 30.9197 49.0166C31.7897 49.0833 32.6122 49.4393 33.2563 50.028L33.2528 50.0338Z" fill="#099E71"/>
</g>
<defs>
<filter id="filter0_d_13_52" x="0" y="0.5" width="87" height="87" filterUnits="userSpaceOnUse" color-interpolation-filters="sRGB">
<feFlood flood-opacity="0" result="BackgroundImageFix"/>
<feColorMatrix in="SourceAlpha" type="matrix" values="0 0 0 0 0 0 0 0 0 0 0 0 0 0 0 0 0 0 127 0" result="hardAlpha"/>
<feOffset dy="4"/>
<feGaussianBlur stdDeviation="2"/>
<feComposite in2="hardAlpha" operator="out"/>
<feColorMatrix type="matrix" values="0 0 0 0 0 0 0 0 0 0 0 0 0 0 0 0 0 0 0.25 0"/>
<feBlend mode="normal" in2="BackgroundImageFix" result="effect1_dropShadow_13_52"/>
<feBlend mode="normal" in="SourceGraphic" in2="effect1_dropShadow_13_52" result="shape"/>
</filter>
<clipPath id="clip0_13_52">
<rect width="79" height="79" fill="white" transform="translate(4 0.5)"/>
</clipPath>
</defs>
</svg>
