<svg width="191" height="190" viewBox="0 0 191 190" fill="none" xmlns="http://www.w3.org/2000/svg">
<path opacity="0.3" d="M95.4453 0C76.6561 0 58.2889 5.5716 42.6662 16.0103C27.0436 26.4491 14.8671 41.2861 7.6768 58.6451C0.486472 76.004 -1.39484 95.1054 2.27075 113.534C5.93635 131.962 14.9842 148.889 28.2702 162.175C41.5562 175.461 58.4836 184.509 76.9118 188.175C95.34 191.84 114.441 189.959 131.8 182.769C149.159 175.578 163.996 163.402 174.435 147.779C184.874 132.156 190.445 113.789 190.445 95C190.417 69.8131 180.399 45.6658 162.589 27.856C144.78 10.0461 120.632 0.0282173 95.4453 0ZM87.5732 117.374C90.474 117.969 90.2046 122.143 88.3727 124.059C86.7651 121.882 87.8929 119.576 87.5759 117.374H87.5732ZM93.2766 125.356C93.8881 126.356 94.2589 127.485 94.3597 128.654C94.4605 129.822 94.2885 130.998 93.8575 132.089C91.2427 132.886 91.0464 127.126 93.2795 125.358L93.2766 125.356ZM95.0975 116.872C94.6178 114.42 102.165 111.917 101.64 114.61C99.9846 121.613 97.426 126.842 95.1003 116.869L95.0975 116.872ZM155.887 158.43C139.211 156.401 115.628 154.322 99.6341 154.059C98.8695 150.367 99.216 146.531 100.63 143.036C100.817 141.516 101.127 140.014 101.556 138.544C101.999 136.599 102.623 134.698 103.419 132.869C103.552 132.374 103.74 131.896 103.98 131.443C104.104 131.217 104.243 130.999 104.395 130.79C106.098 128.097 111.689 123.12 114.214 123.495C118.703 121.969 123.399 120.813 126.584 119.352C128.691 118.824 128.298 118.533 128.564 120.71C133 121.936 135.017 116.165 138.611 119.307C143.243 126.845 143.61 120.611 149.617 122.247C152.922 118.112 157.753 125.053 158.771 120.429C159.778 117.966 161.035 115.971 159.613 113.317C148.73 107.611 165.415 112.515 157.169 105.327C157.259 101.989 168.857 105.063 161.465 99.4524C161.33 99.3112 161.234 99.138 161.186 98.9492C161.138 98.7604 161.139 98.5624 161.189 98.3741C161.239 98.1858 161.336 98.0135 161.472 97.8737C161.608 97.7338 161.777 97.6312 161.964 97.5755C163.63 97.3398 162.124 95.7884 163.061 95.0758C166.242 93.3925 162.758 93.283 163.229 91.2013C166.613 88.1882 154.706 87.0885 162.275 84.2241C162.769 83.6349 161.978 82.695 161.338 82.6585C152.131 82.4762 167.37 79.1545 161.467 76.0572C154.117 75.3811 160.842 67.5369 155.435 67.3152C152.349 67.8034 153.808 65.3738 150.091 67.0712C145.658 63.6092 151.668 62.4645 146.643 57.8467C146.413 49.75 142.595 59.53 138.4 53.2822C133.794 51.1163 139.379 50.4149 136.229 49.1861C128.618 50.3279 135.196 46.9276 130.618 45.8868C128.814 46.0916 128.463 44.7394 128.054 43.4994C125.473 40.3235 122.162 45.9261 118.49 39.4285C116.206 38.5905 113.74 38.3774 111.347 38.8113C110.616 38.2285 109.77 37.8058 108.865 37.5705C107.959 37.3351 107.015 37.2924 106.092 37.445C105.416 39.5127 102.689 37.4002 102.007 36.2639C99.6535 32.527 98.1976 39.726 96.3571 35.2989C86.7062 45.3734 81.373 27.4434 77.709 42.178C75.6133 45.1967 71.8174 38.0819 69.4103 40.6265C68.0945 43.1514 61.1397 37.2879 64.9916 45.5614C57.3017 49.9576 71.8679 53.4813 62.4049 54.0172C59.2852 55.4592 59.807 51.4081 58.3453 51.4053C56.0701 52.6649 48.4701 51.9047 52.0134 56.8031C52.294 57.0668 53.099 59.1232 51.786 58.6659C47.1485 57.9898 49.9906 58.5958 49.2612 61.3452C49.1097 63.5138 47.2076 59.861 46.6212 60.4586C46.4108 64.9025 42.7327 58.607 42.6935 62.2906C43.7287 67.1049 45.5692 70.6903 39.6075 69.4755C37.9999 70.9625 37.3827 71.4393 39.7561 72.6457C24.0705 70.4434 44.5927 81.5139 33.7859 80.4759C26.2896 84.5495 39.9328 86.749 39.0266 89.7929C38.2046 90.11 37.6015 88.0788 36.7177 89.779C35.3879 89.9726 31.5921 86.0869 31.4321 89.9445C32.7339 93.6702 25.8408 91.1845 25.5098 94.6858C26.228 96.7619 30.0266 97.2107 29.6367 100.451C30.7897 103.677 37.6856 100.378 32.5852 105.002C32.0606 108.929 36.8523 103.226 35.7554 108.912C37.6603 106.511 40.3171 108.823 37.3265 109.622C31.303 109.342 29.4963 115.879 34.9755 118.039C36.6953 117.388 36.1959 119.36 36.4708 120.362C37.2199 126.697 44.1074 117.59 44.9827 121.139C43.2994 122.261 45.1734 125.628 46.1385 124.382C46.3966 123.493 46.9579 121.661 48.1867 121.857C49.1967 124.045 48.5345 126.722 52.1929 126.481C53.8762 126.666 52.9812 121.675 53.8958 120.491C60.5392 113.814 68.678 120.491 63.8666 120.398C63.8329 123.173 73.15 119.371 74.5275 123.779C77.8941 130.411 88.2746 131.934 86.4762 140.982C86.9515 145.355 86.6955 149.776 85.7187 154.064C71.8258 154.23 49.9906 155.992 34.1759 157.65C21.6757 145.433 13.1116 129.759 9.58281 112.641C6.05402 95.522 7.72154 77.7393 14.3715 61.575C21.0214 45.4108 32.3502 31.6027 46.9038 21.9231C61.4574 12.2434 78.5717 7.13383 96.0499 7.25024C113.528 7.36664 130.573 12.7036 144.996 22.5763C159.42 32.449 170.564 46.4068 176.998 62.6582C183.432 78.9095 184.862 96.7128 181.106 113.783C177.349 130.853 168.577 146.411 155.915 158.461L155.887 158.43ZM108.269 115.915C107.565 116.524 105.848 120.488 105.354 118.785C104.95 115.873 109.316 111.331 108.272 115.912L108.269 115.915ZM117.264 119.472C116.161 119.139 111.282 120.839 106.137 123.546C111.092 118.375 114.772 117.652 117.267 119.467L117.264 119.472ZM79.2604 114.173C81.6535 113.943 83.6623 118.662 82.801 119.652C81.258 119.186 78.1017 116.137 79.2632 114.167L79.2604 114.173ZM78.4664 122.87C76.8336 120.547 73.8542 117.82 73.4895 115.124C79.0051 118.872 86.9755 130.736 78.4664 122.856V122.87ZM70.799 119.13C69.726 119.468 68.567 119.406 67.5358 118.957C66.5047 118.507 65.6709 117.7 65.188 116.684C67.2803 116.844 69.2586 117.7 70.8074 119.116L70.799 119.13Z" fill="#099E71"/>
</svg>
