<svg width="121" height="120" viewBox="0 0 121 120" fill="none" xmlns="http://www.w3.org/2000/svg">
<g clip-path="url(#clip0_20_137)">
<path d="M60.2578 0.5C48.391 0.5 36.7906 3.98961 26.9236 10.5276C17.0567 17.0655 9.36633 26.3581 4.82507 37.2303C0.28381 48.1025 -0.904391 60.066 1.41072 71.6079C3.72584 83.1497 9.44028 93.7516 17.8314 102.073C26.2226 110.394 36.9136 116.061 48.5524 118.357C60.1913 120.653 72.2553 119.474 83.2188 114.971C94.1824 110.467 103.553 102.841 110.146 93.0564C116.739 83.2717 120.258 71.768 120.258 60C120.24 44.2251 113.913 29.1013 102.665 17.9467C91.4162 6.79214 76.1653 0.517717 60.2578 0.5V0.5ZM84.1078 62.0825L49.1083 84.395C48.7309 84.6351 48.2953 84.7701 47.8471 84.7859C47.399 84.8017 46.9548 84.6977 46.5611 84.4847C46.1674 84.2718 45.8387 83.9578 45.6094 83.5757C45.3801 83.1935 45.2587 82.7572 45.2578 82.3125V37.6875C45.2585 37.2426 45.3799 36.806 45.6093 36.4236C45.8386 36.0412 46.1675 35.7271 46.5614 35.5141C46.9554 35.3012 47.3998 35.1972 47.8482 35.2132C48.2966 35.2292 48.7324 35.3645 49.1098 35.605L84.1078 57.9175C84.4589 58.1421 84.7476 58.4504 84.9476 58.8142C85.1475 59.178 85.2522 59.5857 85.2522 60C85.2522 60.4143 85.1475 60.822 84.9476 61.1858C84.7476 61.5496 84.4589 61.8579 84.1078 62.0825Z" fill="#099E71"/>
</g>
<defs>
<clipPath id="clip0_20_137">
<rect width="120" height="119" fill="white" transform="translate(0.257812 0.5)"/>
</clipPath>
</defs>
</svg>
